<svg xmlns="http://www.w3.org/2000/svg" enable-background="new 0 0 32 32" viewBox="0 0 32 32" id="WithdrawMoney">
  <path d="M28.41,1H3.59L1,3.59v4.82L3.59,11H6v20h20V11h2.41L31,8.41V3.59L28.41,1z M24,21H8V7h16V21z M29,7.59L27.59,9H26V7h1V5H5v2h1v2H4.41L3,7.59V4.41L4.41,3h23.18L29,4.41V7.59z" fill="#ffffff" class="color000000 svgShape"></path>
  <polygon points="11 13.414 12.586 15 15.414 15 17 13.414 17 11.414 17.414 11 18.586 11 19 11.414 19 12.586 18.586 13 18 13 18 15 19.414 15 21 13.414 21 13 22 13 22 11 21 11 21 10.586 19.414 9 16.586 9 15 10.586 15 12.586 14.586 13 13.414 13 13 12.586 13 11.414 13.414 11 14 11 14 9 12.586 9 11 10.586 11 11 10 11 10 13 11 13" fill="#ffffff" class="color000000 svgShape"></polygon>
</svg>
