<svg xmlns="http://www.w3.org/2000/svg" enable-background="new 0 0 64 64" viewBox="0 0 64 64" id="WithdrawMoney">
  <path d="M32,23.33c-5.696,0-10.33,4.787-10.33,10.67S26.304,44.67,32,44.67S42.33,39.883,42.33,34S37.696,23.33,32,23.33z
		 M32,42.67c-4.593,0-8.33-3.889-8.33-8.67s3.737-8.67,8.33-8.67s8.33,3.889,8.33,8.67S36.593,42.67,32,42.67z" fill="#ffffff" class="color000000 svgShape"></path>
  <path d="M37.507,33c-0.421-1.396-1.677-2.42-3.177-2.42C32.494,30.58,31,32.114,31,34c0,0.783-0.597,1.42-1.33,1.42
		c-0.739,0-1.34-0.637-1.34-1.42c0-0.513,0.259-0.983,0.675-1.227c0.477-0.279,0.637-0.892,0.358-1.368
		c-0.278-0.477-0.891-0.636-1.368-0.358c-0.737,0.431-1.269,1.138-1.513,1.953H26.17c-0.552,0-1,0.448-1,1s0.448,1,1,1h0.323
		c0.421,1.396,1.677,2.42,3.177,2.42c1.836,0,3.33-1.534,3.33-3.42c0-0.783,0.597-1.42,1.33-1.42c0.739,0,1.34,0.637,1.34,1.42
		c0,0.513-0.259,0.983-0.675,1.227c-0.477,0.279-0.637,0.892-0.358,1.368c0.186,0.318,0.521,0.495,0.864,0.495
		c0.171,0,0.345-0.044,0.504-0.137c0.737-0.431,1.269-1.138,1.513-1.953h0.312c0.552,0,1-0.448,1-1s-0.448-1-1-1H37.507z" fill="#ffffff" class="color000000 svgShape"></path>
  <path d="M2,28h15v34c0,1.103,0.897,2,2,2h26c1.103,0,2-0.897,2-2v-8c0-0.552-0.448-1-1-1s-1,0.448-1,1v2.044
		c-2.975,0.453-5.326,2.885-5.753,5.956H24.753c-0.427-3.071-2.778-5.503-5.753-5.956V14h23c0.552,0,1-0.448,1-1s-0.448-1-1-1H7V8
		h50v4H46c-0.552,0-1,0.448-1,1v37c0,0.552,0.448,1,1,1s1-0.448,1-1V28h15c1.103,0,2-0.897,2-2V2c0-1.103-0.897-2-2-2H2
		C0.897,0,0,0.897,0,2v24C0,27.103,0.897,28,2,28z M45,58.072V62h-3.733C41.647,60.037,43.125,58.486,45,58.072z M22.733,62H19
		v-3.928C20.875,58.486,22.353,60.037,22.733,62z M17,14v6H7v-6H17z M57,14v6H47v-6H57z M2,2h60v24H47v-4h10c1.103,0,2-0.897,2-2V8
		c0-1.103-0.897-2-2-2H7C5.897,6,5,6.897,5,8v12c0,1.103,0.897,2,2,2h10v4H2V2z" fill="#ffffff" class="color000000 svgShape"></path>
</svg>
